<svg xmlns="http://www.w3.org/2000/svg" width="1200" height="1200" viewBox="0 0 1200 1200" role="img" aria-labelledby="title desc">
  <title id="title">AegisX official logo</title>
  <desc id="desc">Red shield and X emblem with the AegisX wordmark on a black background.</desc>
  <defs>
    <linearGradient id="red" x1="0" y1="0" x2="1" y2="1">
      <stop offset="0" stop-color="#ff3b42"/>
      <stop offset="0.42" stop-color="#ff141d"/>
      <stop offset="0.72" stop-color="#dd0713"/>
      <stop offset="1" stop-color="#95000b"/>
    </linearGradient>
    <linearGradient id="ink" x1="0" y1="0" x2="0" y2="1">
      <stop offset="0" stop-color="#24262b"/>
      <stop offset="1" stop-color="#08090b"/>
    </linearGradient>
    <filter id="shadow" x="-20%" y="-20%" width="140%" height="150%">
      <feDropShadow dx="0" dy="9" stdDeviation="8" flood-color="#000" flood-opacity="0.42"/>
    </filter>
  </defs>
  <rect width="1200" height="1200" fill="#000"/>
  <g fill="none" stroke="url(#red)" stroke-linecap="round" stroke-linejoin="round" filter="url(#shadow)">
    <path d="M330 188 C405 126 502 98 600 98 C698 98 795 126 870 188" stroke-width="36"/>
    <path d="M330 188 C270 252 244 329 250 420 C258 529 318 620 402 696 L555 832 C581 855 619 855 645 832 L798 696 C882 620 942 529 950 420 C956 329 930 252 870 188" stroke-width="36"/>
    <path d="M368 302 L832 714" stroke-width="32"/>
    <path d="M832 302 L368 714" stroke-width="32"/>
  </g>
  <g font-family="Inter, Segoe UI, Arial, sans-serif" font-weight="700" letter-spacing="-12">
    <text x="140" y="1040" fill="url(#ink)" font-size="190">Aegis</text>
    <text x="874" y="1040" fill="url(#red)" font-size="190">X</text>
  </g>
</svg>
